<?xml version="1.0" ?>
<svg height="40px" version="1.1" viewBox="0 0 60 60" width="40px" xmlns="http://www.w3.org/2000/svg" xmlns:sketch="http://www.bohemiancoding.com/sketch/ns" xmlns:xlink="http://www.w3.org/1999/xlink">
  <title/>
  <desc/>
  <defs/>
  <g fill="none" fill-rule="evenodd" id="black" stroke="none" stroke-width="1">
    <g id="slice" transform="translate(-300.000000, -200.000000)"/>
    <g fill="white" id="sound_cloud" transform="translate(11.000000, 21.000000)" stroke="white" stroke-width="1">
      <path d="M17.8461538,3.34732745 C19.312135,1.85130823 21.3553597,0.923076923 23.6153846,0.923076923 C27.7401379,0.923076923 31.1427384,4.01497895 31.6319389,8.00753597 C32.01883,7.90231317 32.4259335,7.84615385 32.8461538,7.84615385 C35.3951605,7.84615385 37.4615385,9.9125318 37.4615385,12.4615385 C37.4615385,14.6121225 35.9906469,16.4191613 34,16.9315183 L34,17.0769231 L11.5,17.0769231 L17.8461538,17.0769231 L17.8461538,3.34732745 L17.8461538,3.34732745 Z M2.26923077,15.9230769 C2.5878566,15.9230769 2.84615385,14.3732935 2.84615385,12.4615385 C2.84615385,10.5497835 2.5878566,9 2.26923077,9 C1.95060494,9 1.69230769,10.5497835 1.69230769,12.4615385 C1.69230769,14.3732935 1.95060494,15.9230769 2.26923077,15.9230769 Z M4.57692308,17.0769231 C4.89554891,17.0769231 5.15384615,15.0105451 5.15384615,12.4615385 C5.15384615,9.9125318 4.89554891,7.84615385 4.57692308,7.84615385 C4.25829724,7.84615385 4,9.9125318 4,12.4615385 C4,15.0105451 4.25829724,17.0769231 4.57692308,17.0769231 Z M6.88461538,17.0769231 C7.20324122,17.0769231 7.46153846,15.0105451 7.46153846,12.4615385 C7.46153846,9.9125318 7.20324122,7.84615385 6.88461538,7.84615385 C6.56598955,7.84615385 6.30769231,9.9125318 6.30769231,12.4615385 C6.30769231,15.0105451 6.56598955,17.0769231 6.88461538,17.0769231 Z M9.19230769,17.0769231 C9.51093353,17.0769231 9.76923077,14.4939506 9.76923077,11.3076923 C9.76923077,8.12143398 9.51093353,5.53846154 9.19230769,5.53846154 C8.87368186,5.53846154 8.61538462,8.12143398 8.61538462,11.3076923 C8.61538462,14.4939506 8.87368186,17.0769231 9.19230769,17.0769231 Z M11.5,17.0769231 C11.8186258,17.0769231 12.0769231,14.2356534 12.0769231,10.7307692 C12.0769231,7.22588507 11.8186258,4.38461538 11.5,4.38461538 C11.1813742,4.38461538 10.9230769,7.22588507 10.9230769,10.7307692 C10.9230769,14.2356534 11.1813742,17.0769231 11.5,17.0769231 Z M13.8076923,17.0769231 C14.1263181,17.0769231 14.3846154,13.9773561 14.3846154,10.1538462 C14.3846154,6.33033616 14.1263181,3.23076923 13.8076923,3.23076923 C13.4890665,3.23076923 13.2307692,6.33033616 13.2307692,10.1538462 C13.2307692,13.9773561 13.4890665,17.0769231 13.8076923,17.0769231 Z M16.1153846,17.0769231 C16.4340104,17.0769231 16.6923077,13.9773561 16.6923077,10.1538462 C16.6923077,6.33033616 16.4340104,3.23076923 16.1153846,3.23076923 C15.7967588,3.23076923 15.5384615,6.33033616 15.5384615,10.1538462 C15.5384615,13.9773561 15.7967588,17.0769231 16.1153846,17.0769231 Z" id="SoundCloud"/>
    </g>
  </g>
</svg>